<svg width="332" height="227" viewBox="0 0 332 227" fill="none" xmlns="http://www.w3.org/2000/svg">
<g clip-path="url(#clip0_6399_23381)">
<path d="M197.599 219.974C197.549 221.845 197.235 223.7 196.666 225.484C196.653 225.526 196.639 225.566 196.626 225.608H193.144C193.148 225.571 193.152 225.529 193.155 225.484C193.387 222.82 192.061 206.8 190.461 204.028C190.601 204.253 197.869 211.509 197.599 219.974Z" fill="#E6E6E6"/>
<path d="M197.337 225.484C197.308 225.525 197.278 225.567 197.247 225.608H194.635C194.655 225.572 194.678 225.531 194.705 225.484C195.136 224.707 196.413 222.383 197.598 219.973C198.872 217.384 200.041 214.697 199.943 213.724C199.973 213.944 200.855 220.631 197.337 225.484Z" fill="#E6E6E6"/>
<path d="M331.467 155.194C331.332 155.194 331.203 155.143 331.104 155.052C331.006 154.96 330.946 154.834 330.936 154.7C330.497 148.739 327.819 143.162 323.437 139.088C319.056 135.013 313.294 132.74 307.306 132.724C306.588 132.724 305.835 132.76 305.069 132.832C304.967 132.841 304.864 132.821 304.774 132.774C304.683 132.728 304.608 132.656 304.557 132.567C301.809 127.765 297.705 123.878 292.757 121.39C287.81 118.901 282.238 117.923 276.736 118.576C271.235 119.229 266.048 121.485 261.824 125.062C257.599 128.639 254.523 133.38 252.979 138.691C252.946 138.803 252.877 138.901 252.783 138.971C252.688 139.04 252.573 139.076 252.456 139.074L252.278 139.069C252.185 139.066 252.091 139.063 251.997 139.063C247.45 139.077 243.044 140.643 239.511 143.5C235.978 146.358 233.53 150.335 232.573 154.773C232.548 154.892 232.483 154.999 232.388 155.076C232.293 155.152 232.175 155.194 232.052 155.194H187.274C187.133 155.194 186.998 155.138 186.898 155.039C186.798 154.939 186.742 154.804 186.742 154.663C186.742 154.522 186.798 154.387 186.898 154.287C186.998 154.187 187.133 154.131 187.274 154.131H231.625C232.713 149.55 235.315 145.467 239.01 142.541C242.706 139.614 247.28 138.015 251.997 138C252.023 138 252.049 138 252.074 138C253.882 132.152 257.469 127.011 262.337 123.29C267.424 119.397 273.659 117.296 280.069 117.316C285.169 117.326 290.179 118.661 294.605 121.191C299.031 123.721 302.72 127.358 305.309 131.744C305.992 131.689 306.662 131.661 307.306 131.661C313.564 131.678 319.584 134.053 324.162 138.311C328.741 142.569 331.54 148.396 331.999 154.626C332.004 154.695 331.995 154.765 331.973 154.831C331.95 154.898 331.915 154.959 331.869 155.012C331.824 155.064 331.768 155.107 331.705 155.139C331.643 155.17 331.575 155.188 331.505 155.193C331.492 155.194 331.48 155.194 331.467 155.194Z" fill="#E5E5E5"/>
<path d="M305.827 163.749H213.899C213.758 163.749 213.623 163.693 213.524 163.593C213.424 163.493 213.368 163.358 213.368 163.218C213.368 163.077 213.424 162.942 213.524 162.842C213.623 162.743 213.758 162.687 213.899 162.686H305.827C305.968 162.687 306.103 162.743 306.202 162.842C306.302 162.942 306.358 163.077 306.358 163.218C306.358 163.358 306.302 163.493 306.202 163.593C306.103 163.693 305.968 163.749 305.827 163.749Z" fill="#E5E5E5"/>
<path d="M240.635 173.424H203.873C203.732 173.424 203.597 173.368 203.497 173.268C203.397 173.168 203.341 173.033 203.341 172.892C203.341 172.751 203.397 172.616 203.497 172.516C203.597 172.417 203.732 172.361 203.873 172.361H240.635C240.776 172.361 240.911 172.417 241.011 172.516C241.111 172.616 241.167 172.751 241.167 172.892C241.167 173.033 241.111 173.168 241.011 173.268C240.911 173.368 240.776 173.424 240.635 173.424Z" fill="#E5E5E5"/>
<path d="M170.375 44.869C170.176 44.8688 169.985 44.7934 169.839 44.658C169.694 44.5226 169.605 44.3373 169.592 44.1393C169.078 37.1679 165.946 30.6474 160.822 25.8825C155.698 21.1176 148.961 18.4598 141.959 18.441C141.121 18.441 140.24 18.4835 139.342 18.5674C139.192 18.5815 139.041 18.5521 138.907 18.4827C138.773 18.4134 138.662 18.307 138.587 18.1762C135.37 12.5559 130.566 8.00566 124.776 5.09335C118.985 2.18103 112.463 1.03563 106.024 1.80009C99.585 2.56454 93.5142 5.205 88.5691 9.39194C83.624 13.5789 80.0237 19.1269 78.2174 25.3435C78.1697 25.5101 78.0678 25.6561 77.9279 25.7586C77.7879 25.8611 77.6178 25.9142 77.4443 25.9096L77.2353 25.9033C77.1266 25.8997 77.018 25.8959 76.9084 25.8959C71.597 25.9125 66.451 27.7414 62.3242 31.0792C58.1974 34.4169 55.3379 39.0629 54.2201 44.2462C54.1829 44.4223 54.0862 44.5804 53.9461 44.6938C53.8061 44.8072 53.6312 44.869 53.4509 44.869H0.786106C0.577618 44.869 0.377668 44.7864 0.230245 44.6392C0.0828211 44.492 0 44.2924 0 44.0843C0 43.8762 0.0828211 43.6766 0.230245 43.5294C0.377668 43.3823 0.577618 43.2996 0.786106 43.2996H52.8218C54.1317 37.9083 57.213 33.1103 61.5739 29.6713C65.9347 26.2324 71.3238 24.3506 76.8812 24.3264C78.8597 17.938 82.6541 12.2607 87.8034 7.98404C92.9528 3.70743 99.2355 1.01564 105.888 0.235679C112.541 -0.544277 119.278 0.621175 125.279 3.59045C131.281 6.55972 136.29 11.205 139.697 16.962C140.471 16.9018 141.229 16.8715 141.959 16.8715C149.359 16.8916 156.478 19.7003 161.893 24.7359C167.307 29.7714 170.617 36.6622 171.16 44.0293C171.167 44.1321 171.154 44.2354 171.121 44.3331C171.089 44.4309 171.037 44.5212 170.969 44.599C170.901 44.6768 170.819 44.7405 170.727 44.7865C170.634 44.8325 170.534 44.8599 170.431 44.8671C170.412 44.8685 170.393 44.869 170.375 44.869Z" fill="#E5E5E5"/>
<path d="M161.022 54.9305H32.1003C31.8918 54.9305 31.6919 54.8479 31.5445 54.7007C31.397 54.5535 31.3142 54.3539 31.3142 54.1458C31.3142 53.9377 31.397 53.7381 31.5445 53.5909C31.6919 53.4438 31.8918 53.3611 32.1003 53.3611H161.022C161.23 53.3611 161.43 53.4438 161.578 53.5909C161.725 53.7381 161.808 53.9377 161.808 54.1458C161.808 54.3539 161.725 54.5535 161.578 54.7007C161.43 54.8479 161.23 54.9305 161.022 54.9305Z" fill="#E5E5E5"/>
<path d="M63.5445 66.3089H20.3087C20.1002 66.3089 19.9003 66.2263 19.7528 66.0791C19.6054 65.9319 19.5226 65.7323 19.5226 65.5242C19.5226 65.3161 19.6054 65.1165 19.7528 64.9693C19.9003 64.8222 20.1002 64.7395 20.3087 64.7395H63.5445C63.753 64.7395 63.953 64.8222 64.1004 64.9693C64.2478 65.1165 64.3307 65.3161 64.3307 65.5242C64.3307 65.7323 64.2478 65.9319 64.1004 66.0791C63.953 66.2263 63.753 66.3089 63.5445 66.3089Z" fill="#E5E5E5"/>
<path d="M233.639 226H21.7834C21.6792 226 21.5792 225.959 21.5055 225.885C21.4318 225.812 21.3904 225.712 21.3904 225.608C21.3904 225.504 21.4318 225.404 21.5055 225.33C21.5792 225.257 21.6792 225.215 21.7834 225.215H233.639C233.743 225.215 233.843 225.257 233.917 225.33C233.991 225.404 234.032 225.504 234.032 225.608C234.032 225.712 233.991 225.812 233.917 225.885C233.843 225.959 233.743 226 233.639 226Z" fill="#CBCBCB"/>
<path d="M195.377 73.9939C193.909 73.9944 192.466 73.6129 191.194 72.8877C189.921 72.1624 188.864 71.1189 188.128 69.8619C187.392 68.6048 187.003 67.1784 187 65.7256C186.997 64.2729 187.38 62.8449 188.111 61.5849L212.125 20.1608C212.85 18.8933 213.903 17.8396 215.175 17.1084C216.448 16.3771 217.895 15.9945 219.367 16.0001C220.834 15.9915 222.277 16.3681 223.549 17.0916C224.822 17.8151 225.877 18.8594 226.608 20.1182L250.868 61.4022C251.606 62.66 251.996 64.0876 252 65.5418C252.004 66.9959 251.621 68.4255 250.89 69.687C250.159 70.9485 249.105 71.9976 247.835 72.7289C246.564 73.4603 245.122 73.8482 243.652 73.8538L195.383 74L195.377 73.9939ZM219.391 18.4673C218.358 18.4642 217.343 18.7334 216.45 19.2474C215.557 19.7613 214.819 20.5014 214.311 21.3914L190.297 62.8155C189.784 63.699 189.516 64.7003 189.517 65.7191C189.519 66.7379 189.792 67.7383 190.307 68.6201C190.823 69.5018 191.564 70.2339 192.456 70.743C193.348 71.2521 194.36 71.5203 195.389 71.5206L243.658 71.3744C244.685 71.3683 245.693 71.0956 246.581 70.5836C247.469 70.0716 248.205 69.3382 248.717 68.4566C249.228 67.575 249.497 66.576 249.497 65.5594C249.496 64.5428 249.226 63.5442 248.713 62.6632L224.453 21.3853C223.945 20.4982 223.209 19.7606 222.318 19.2478C221.428 18.7351 220.415 18.4657 219.385 18.4673H219.391Z" fill="#EBEBEB"/>
<path d="M216.005 38.1965L217.017 53.6725C217.055 54.2832 217.296 54.857 217.692 55.2854C218.089 55.7137 218.614 55.9668 219.169 55.9967C219.752 56.0298 220.325 55.8147 220.768 55.3959C221.212 54.977 221.493 54.3863 221.553 53.7457L222.991 38.1721C223.016 37.894 222.988 37.6132 222.907 37.3483C222.827 37.0833 222.696 36.8402 222.524 36.635C222.352 36.4298 222.142 36.2671 221.909 36.1577C221.676 36.0483 221.425 35.9947 221.171 36.0004L217.747 36.0858C217.505 36.0917 217.267 36.1518 217.046 36.2624C216.826 36.373 216.628 36.5318 216.466 36.7292C216.303 36.9266 216.178 37.1584 216.098 37.4107C216.019 37.6629 215.987 37.9302 216.005 38.1965Z" fill="#EBEBEB"/>
<path d="M187.78 172L144.44 171.97C139.231 171.97 135 167.529 135 162.053V47.9123C135 42.4369 139.231 37.9957 144.44 38L187.758 38.0257C192.972 38.0257 197.198 42.467 197.198 47.9423L197.177 162.083C197.22 167.563 192.993 172 187.78 172Z" fill="#263238"/>
<path d="M187.767 42.0679H179.365C178.798 42.0957 178.265 42.347 177.883 42.7668C177.501 43.1866 177.301 43.7407 177.327 44.3078V45.9083C177.352 46.4761 177.152 47.0308 176.769 47.4507C176.386 47.8707 175.852 48.1215 175.284 48.1482H158.914C158.346 48.1205 157.813 47.8685 157.431 47.4478C157.048 47.027 156.849 46.4718 156.876 45.904V44.3078C156.901 43.7407 156.701 43.1866 156.319 42.7668C155.937 42.347 155.404 42.0957 154.837 42.0679H144.539C140.887 42.0679 137.927 45.1789 137.927 49.015V160.419C137.927 164.25 140.883 167.361 144.53 167.366L187.767 167.391C191.418 167.391 194.379 164.285 194.379 160.449L194.371 49.0279C194.371 45.166 191.418 42.0679 187.767 42.0679Z" fill="white"/>
<path d="M149.71 156.849V159.573C149.709 159.627 149.695 159.679 149.667 159.725C149.64 159.771 149.601 159.809 149.554 159.835C149.507 159.86 149.455 159.873 149.401 159.872C149.348 159.87 149.296 159.855 149.25 159.826L147.105 158.462C147.062 158.435 147.027 158.397 147.003 158.353C146.979 158.309 146.966 158.259 146.966 158.209C146.966 158.158 146.979 158.109 147.003 158.064C147.027 158.02 147.062 157.983 147.105 157.956L149.25 156.591C149.296 156.563 149.349 156.547 149.402 156.546C149.456 156.544 149.509 156.558 149.556 156.584C149.603 156.61 149.642 156.649 149.669 156.695C149.696 156.742 149.71 156.795 149.71 156.849Z" fill="#E0E0E0"/>
<path d="M167.329 158.183C167.328 158.554 167.217 158.917 167.01 159.226C166.803 159.534 166.509 159.775 166.165 159.916C165.822 160.058 165.444 160.094 165.08 160.021C164.715 159.948 164.381 159.769 164.119 159.506C163.856 159.243 163.678 158.908 163.605 158.544C163.533 158.179 163.571 157.801 163.713 157.458C163.855 157.115 164.096 156.822 164.405 156.616C164.714 156.409 165.078 156.299 165.449 156.299C165.948 156.3 166.426 156.499 166.778 156.852C167.131 157.205 167.329 157.684 167.329 158.183Z" fill="#E0E0E0"/>
<path d="M183.493 156.544H181.631C181.187 156.544 180.828 156.903 180.828 157.346V159.217C180.828 159.66 181.187 160.019 181.631 160.019H183.493C183.936 160.019 184.295 159.66 184.295 159.217V157.346C184.295 156.903 183.936 156.544 183.493 156.544Z" fill="#E0E0E0"/>
<path d="M187.041 96.2982C189.809 84.84 182.764 73.3076 171.306 70.5398C159.848 67.772 148.315 74.817 145.548 86.2751C142.78 97.7333 149.825 109.266 161.283 112.033C172.741 114.801 184.274 107.756 187.041 96.2982Z" fill="#F5F5F5"/>
<path d="M167.247 100.683C167.246 101.032 167.142 101.373 166.947 101.663C166.752 101.952 166.476 102.178 166.153 102.31C165.831 102.443 165.476 102.477 165.134 102.407C164.792 102.338 164.478 102.169 164.232 101.921C163.986 101.674 163.819 101.359 163.752 101.016C163.686 100.674 163.722 100.319 163.857 99.9971C163.992 99.6752 164.219 99.4006 164.51 99.2081C164.801 99.0155 165.143 98.9136 165.492 98.9153C165.959 98.9187 166.405 99.1065 166.734 99.4376C167.063 99.7688 167.247 100.217 167.247 100.683Z" fill="#455A64"/>
<path d="M161.96 98.4176C162.41 97.9332 162.954 97.5451 163.558 97.2769C164.163 97.0086 164.815 96.8658 165.476 96.8569C166.137 96.8481 166.793 96.9735 167.404 97.2255C168.016 97.4775 168.569 97.851 169.032 98.3232C169.933 99.2329 171.341 97.8383 170.439 96.9286C169.792 96.2758 169.02 95.7591 168.17 95.409C167.319 95.059 166.407 94.8825 165.488 94.8901C164.568 94.8977 163.659 95.0892 162.815 95.4533C161.97 95.8174 161.207 96.3467 160.57 97.0101C159.69 97.9327 161.085 99.3444 161.969 98.4176H161.96Z" fill="#455A64"/>
<path d="M155.97 90.2216C158.652 87.9045 161.853 86.4455 165.436 86.4369C169.013 86.3859 172.474 87.7028 175.112 90.1186C176.039 90.9768 177.451 89.5994 176.52 88.724C173.512 85.9386 169.557 84.4042 165.458 84.433C161.334 84.433 157.669 86.1494 154.584 88.797C153.619 89.6337 155.013 91.0369 155.983 90.2044L155.97 90.2216Z" fill="#455A64"/>
<path d="M158.335 94.7574C159.229 93.7595 160.32 92.9577 161.539 92.4026C162.759 91.8475 164.08 91.5512 165.42 91.5322C166.76 91.5133 168.089 91.7721 169.323 92.2925C170.558 92.8129 171.672 93.5835 172.594 94.5557C173.486 95.4697 174.894 94.0751 174.001 93.1568C172.895 92.0007 171.563 91.0842 170.088 90.4639C168.613 89.8436 167.026 89.5329 165.427 89.551C163.827 89.5691 162.247 89.9157 160.787 90.5691C159.326 91.2226 158.015 92.1691 156.936 93.3499C156.078 94.2854 157.464 95.6971 158.335 94.7574Z" fill="#455A64"/>
<path d="M182.147 86.4833C182.667 83.5405 180.703 80.7331 177.761 80.2126C174.818 79.6921 172.01 81.6558 171.49 84.5985C170.97 87.5412 172.933 90.3487 175.876 90.8692C178.819 91.3896 181.626 89.426 182.147 86.4833Z" fill="#1A5D1A"/>
<path d="M179.049 84.0279L178.281 83.2603L174.843 86.698L175.611 87.4657L179.049 84.0279Z" fill="white"/>
<path d="M175.613 83.2563L174.845 84.0239L178.283 87.4617L179.05 86.694L175.613 83.2563Z" fill="white"/>
<path d="M164.861 53.9841C165.13 53.8227 165.418 53.6972 165.719 53.6108L165.895 52.7526L167.324 52.7268L167.53 53.585C167.83 53.6611 168.119 53.7765 168.388 53.9283L169.105 53.4477L170.135 54.4432L169.684 55.1813C169.846 55.4498 169.971 55.7383 170.058 56.0395L170.916 56.2154L170.942 57.6486L170.083 57.8503C170.009 58.1501 169.895 58.4387 169.744 58.7085L170.216 59.4294L169.225 60.4592L168.487 60.0301C168.218 60.1899 167.93 60.3139 167.629 60.3992L167.453 61.2574L166.024 61.2831L165.818 60.4249C165.518 60.348 165.23 60.2327 164.96 60.0816L164.235 60.5536L163.205 59.5624L163.655 58.8243C163.494 58.5561 163.368 58.2675 163.282 57.9661L162.424 57.7902L162.398 56.3613L163.256 56.1553C163.332 55.8558 163.446 55.5673 163.595 55.2971L163.123 54.5719L164.119 53.5464L164.857 53.9755L164.861 53.9841ZM165.621 55.8936C165.41 56.1122 165.268 56.3884 165.214 56.6875C165.16 56.9865 165.196 57.2949 165.317 57.5735C165.438 57.8522 165.639 58.0886 165.895 58.253C166.151 58.4173 166.449 58.5021 166.753 58.4967C167.057 58.4913 167.352 58.3959 167.602 58.2226C167.851 58.0493 168.044 57.8058 168.155 57.523C168.267 57.2402 168.291 56.9308 168.227 56.6339C168.162 56.337 168.011 56.0659 167.792 55.855C167.499 55.5723 167.106 55.4176 166.698 55.4248C166.291 55.4321 165.904 55.6007 165.621 55.8936Z" fill="#E0E0E0"/>
<path d="M146.714 57.1809C146.285 57.1809 145.689 57.1809 145.118 57.1809C144.436 57.1809 143.754 57.1809 143.277 57.1809C143.22 57.1809 143.166 57.1583 143.126 57.118C143.085 57.0778 143.063 57.0232 143.063 56.9663C143.062 56.9383 143.067 56.9105 143.078 56.8845C143.088 56.8585 143.103 56.8348 143.123 56.8148C143.142 56.7949 143.166 56.779 143.192 56.7682C143.217 56.7573 143.245 56.7517 143.273 56.7518C143.749 56.7518 144.44 56.7518 145.127 56.7518C145.813 56.7518 146.491 56.7775 146.968 56.7518C146.996 56.7512 147.023 56.7562 147.049 56.7665C147.075 56.7768 147.099 56.7922 147.119 56.8118C147.139 56.8314 147.155 56.8548 147.166 56.8805C147.177 56.9063 147.182 56.934 147.182 56.962C147.183 56.9902 147.178 57.0182 147.167 57.0445C147.157 57.0707 147.142 57.0947 147.122 57.115C147.103 57.1353 147.08 57.1516 147.054 57.1629C147.028 57.1742 147 57.1803 146.972 57.1809H146.714Z" fill="#263238"/>
<path d="M144.582 58.6227C144.552 58.6221 144.522 58.6153 144.495 58.6028C144.468 58.5902 144.443 58.5722 144.423 58.5498L143.136 57.078C143.101 57.0374 143.081 56.9856 143.081 56.9321C143.081 56.8785 143.101 56.8267 143.136 56.7862L144.423 55.4474C144.442 55.4246 144.465 55.406 144.491 55.3926C144.518 55.3793 144.547 55.3715 144.576 55.3698C144.605 55.368 144.635 55.3724 144.663 55.3826C144.69 55.3928 144.716 55.4086 144.737 55.429C144.758 55.4495 144.775 55.4741 144.787 55.5013C144.798 55.5285 144.804 55.5578 144.803 55.5873C144.803 55.6168 144.796 55.6459 144.784 55.6728C144.772 55.6997 144.754 55.7237 144.732 55.7435L143.595 56.9407L144.771 58.2666C144.798 58.2977 144.816 58.3361 144.822 58.377C144.828 58.418 144.822 58.4599 144.805 58.4975C144.787 58.5352 144.759 58.567 144.725 58.5892C144.69 58.6115 144.649 58.6231 144.608 58.6227H144.582Z" fill="#263238"/>
<path d="M188.814 55.9323C189.181 55.9323 189.479 55.6345 189.479 55.2672C189.479 54.8998 189.181 54.6021 188.814 54.6021C188.446 54.6021 188.149 54.8998 188.149 55.2672C188.149 55.6345 188.446 55.9323 188.814 55.9323Z" fill="#263238"/>
<path d="M189.479 57.3697C189.48 57.5025 189.441 57.6325 189.368 57.7432C189.295 57.854 189.19 57.9404 189.068 57.9916C188.945 58.0428 188.81 58.0564 188.68 58.0307C188.55 58.005 188.43 57.9412 188.336 57.8473C188.242 57.7535 188.178 57.6338 188.153 57.5035C188.127 57.3733 188.141 57.2383 188.192 57.1158C188.243 56.9934 188.329 56.8889 188.44 56.8156C188.551 56.7424 188.681 56.7038 188.814 56.7046C188.99 56.7046 189.159 56.7747 189.284 56.8994C189.409 57.0241 189.479 57.1933 189.479 57.3697Z" fill="#263238"/>
<path d="M188.814 60.1373C189.181 60.1373 189.479 59.8396 189.479 59.4722C189.479 59.1049 189.181 58.8071 188.814 58.8071C188.446 58.8071 188.149 59.1049 188.149 59.4722C188.149 59.8396 188.446 60.1373 188.814 60.1373Z" fill="#263238"/>
<path d="M151.838 120.641C150.826 120.751 149.808 120.788 148.791 120.752C147.776 120.788 146.759 120.751 145.749 120.641C146.759 120.53 147.776 120.493 148.791 120.529C149.808 120.493 150.826 120.53 151.838 120.641Z" fill="#263238"/>
<path d="M162.767 127.764C162.767 127.824 159.025 127.875 154.413 127.875C149.8 127.875 146.058 127.824 146.058 127.764C146.058 127.704 149.795 127.652 154.413 127.652C159.03 127.652 162.767 127.704 162.767 127.764Z" fill="#263238"/>
<path d="M162.767 134.848C162.767 134.908 159.025 134.96 154.413 134.96C149.8 134.96 146.058 134.908 146.058 134.848C146.058 134.788 149.795 134.737 154.413 134.737C159.03 134.737 162.767 134.78 162.767 134.848Z" fill="#263238"/>
<path d="M184.853 125.091H178.743C177.266 125.091 176.069 126.286 176.069 127.762C176.069 129.237 177.266 130.433 178.743 130.433H184.853C186.329 130.433 187.526 129.237 187.526 127.762C187.526 126.286 186.329 125.091 184.853 125.091Z" fill="#EBEBEB"/>
<path d="M180.948 127.764C180.948 128.207 180.817 128.64 180.571 129.008C180.325 129.377 179.975 129.664 179.565 129.833C179.156 130.003 178.706 130.047 178.271 129.961C177.837 129.874 177.438 129.661 177.124 129.348C176.811 129.034 176.598 128.635 176.511 128.201C176.425 127.766 176.469 127.316 176.639 126.907C176.808 126.497 177.096 126.148 177.464 125.901C177.832 125.655 178.265 125.524 178.708 125.524C179.002 125.524 179.294 125.582 179.565 125.694C179.837 125.807 180.084 125.972 180.292 126.18C180.5 126.388 180.665 126.635 180.778 126.907C180.89 127.178 180.948 127.47 180.948 127.764Z" fill="#E0E0E0"/>
<path d="M184.857 137.513H178.743C178.034 137.513 177.354 137.231 176.852 136.73C176.351 136.229 176.069 135.549 176.069 134.84C176.069 134.131 176.351 133.451 176.852 132.95C177.354 132.448 178.034 132.167 178.743 132.167H184.857C185.566 132.167 186.246 132.448 186.748 132.95C187.249 133.451 187.531 134.131 187.531 134.84C187.531 135.549 187.249 136.229 186.748 136.73C186.246 137.231 185.566 137.513 184.857 137.513Z" fill="#EBEBEB"/>
<path d="M178.708 137.08C179.945 137.08 180.948 136.077 180.948 134.84C180.948 133.603 179.945 132.6 178.708 132.6C177.471 132.6 176.468 133.603 176.468 134.84C176.468 136.077 177.471 137.08 178.708 137.08Z" fill="#E0E0E0"/>
<path d="M162.767 141.963C162.767 142.027 159.025 142.074 154.413 142.074C149.8 142.074 146.058 142.027 146.058 141.963C146.058 141.899 149.795 141.851 154.413 141.851C159.03 141.851 162.767 141.903 162.767 141.963Z" fill="#263238"/>
<path d="M184.857 145.426H178.743C178.392 145.426 178.044 145.358 177.72 145.224C177.396 145.09 177.101 144.893 176.853 144.646C176.604 144.398 176.407 144.103 176.273 143.779C176.139 143.455 176.069 143.108 176.069 142.757C176.069 142.048 176.351 141.368 176.852 140.866C177.354 140.365 178.034 140.083 178.743 140.083H184.857C185.566 140.083 186.246 140.365 186.748 140.866C187.249 141.368 187.531 142.048 187.531 142.757C187.531 143.108 187.461 143.455 187.327 143.779C187.193 144.103 186.996 144.398 186.747 144.646C186.499 144.893 186.204 145.09 185.88 145.224C185.556 145.358 185.208 145.426 184.857 145.426Z" fill="#EBEBEB"/>
<path d="M178.708 144.997C179.945 144.997 180.948 143.994 180.948 142.757C180.948 141.52 179.945 140.517 178.708 140.517C177.471 140.517 176.468 141.52 176.468 142.757C176.468 143.994 177.471 144.997 178.708 144.997Z" fill="#E0E0E0"/>
<path d="M222.83 63.8852C222.617 64.7315 222.214 65.4777 221.671 66.0295C221.129 66.5813 220.471 66.9139 219.781 66.9854C219.092 67.0569 218.401 66.8641 217.797 66.4312C217.192 65.9984 216.701 65.3449 216.386 64.5534C216.07 63.7619 215.944 62.8679 216.023 61.9843C216.102 61.1006 216.384 60.267 216.831 59.5888C217.279 58.9105 217.873 58.418 218.538 58.1734C219.203 57.9289 219.91 57.9433 220.568 58.2148C221.007 58.3955 221.413 58.6856 221.764 59.0686C222.115 59.4516 222.404 59.9198 222.614 60.4466C222.824 60.9733 222.952 61.5482 222.989 62.1383C223.026 62.7283 222.972 63.322 222.83 63.8852Z" fill="#EBEBEB"/>
</g>
<path d="M162.884 226.359H65.2474L79.3635 146.293H177L162.884 226.359Z" fill="#FFB534"/>
<path d="M112.781 138H80.828L79.3635 146.293H113.559L112.781 138Z" fill="#FFB534"/>
<g opacity="0.1">
<path d="M162.884 226.359H65.2474L79.3635 146.293H177L162.884 226.359Z" fill="black"/>
<path d="M112.781 138H80.828L79.3635 146.293H113.559L112.781 138Z" fill="black"/>
</g>
<path d="M77.38 141.384C77.1663 140.467 77.1663 139.513 77.38 138.596C77.5936 139.513 77.5936 140.467 77.38 141.384Z" fill="#263238"/>
<path d="M74.5407 142.204C74.2145 141.866 73.9333 141.487 73.7044 141.076C73.4642 140.674 73.2758 140.244 73.1436 139.794C73.4708 140.131 73.752 140.509 73.9799 140.919C74.2196 141.323 74.408 141.754 74.5407 142.204Z" fill="#263238"/>
<path d="M72.4898 144.335C71.5894 144.062 70.7638 143.585 70.0768 142.941C70.526 143.072 70.9568 143.259 71.3586 143.499C71.7691 143.729 72.1492 144.01 72.4898 144.335Z" fill="#263238"/>
<path d="M71.772 147.207C70.8549 147.42 69.901 147.42 68.984 147.207C69.901 146.993 70.8549 146.993 71.772 147.207Z" fill="#263238"/>
<path d="M72.6051 150.046C72.2654 150.37 71.8864 150.651 71.4771 150.882C71.0753 151.122 70.6446 151.309 70.1953 151.44C70.5337 151.114 70.9128 150.832 71.3233 150.603C71.7245 150.363 72.1555 150.175 72.6051 150.046Z" fill="#263238"/>
<path d="M74.733 152.094C74.4602 152.996 73.9832 153.822 73.339 154.51C73.4695 154.06 73.658 153.629 73.8998 153.228C74.1282 152.816 74.4082 152.435 74.733 152.094Z" fill="#263238"/>
<path d="M77.6042 152.802C77.7159 153.258 77.7698 153.726 77.7644 154.196C77.7713 154.665 77.7175 155.134 77.6042 155.59C77.4894 155.134 77.4355 154.665 77.444 154.196C77.4387 153.726 77.4925 153.258 77.6042 152.802Z" fill="#263238"/>
<path d="M80.4435 151.998C80.7698 152.336 81.0509 152.715 81.2799 153.126C81.5207 153.527 81.7081 153.958 81.8375 154.407C81.1933 153.72 80.7163 152.893 80.4435 151.991V151.998Z" fill="#263238"/>
<path d="M82.4912 149.85C82.9409 149.98 83.3718 150.167 83.773 150.408C84.1835 150.637 84.5627 150.918 84.901 151.244C84.4513 151.115 84.0204 150.928 83.6192 150.687C83.2087 150.458 82.8296 150.177 82.4912 149.85Z" fill="#263238"/>
<path d="M83.1995 146.979C84.1176 146.765 85.0725 146.765 85.9906 146.979C85.0725 147.193 84.1176 147.193 83.1995 146.979Z" fill="#263238"/>
<path d="M82.379 144.14C82.7182 143.815 83.0972 143.536 83.507 143.307C83.9074 143.064 84.3385 142.875 84.7888 142.746C84.1012 143.39 83.2744 143.867 82.3726 144.14H82.379Z" fill="#263238"/>
<path d="M80.248 142.092C80.38 141.643 80.5673 141.213 80.8056 140.81C81.0346 140.4 81.3157 140.021 81.642 139.682C81.5127 140.132 81.3252 140.563 81.0844 140.964C80.8555 141.375 80.5743 141.754 80.248 142.092Z" fill="#263238"/>
<path d="M162.74 226.359H64.895L51 149.2H148.848L162.74 226.359Z" fill="#FFB534"/>
<path d="M84.9074 196.368C87.1533 196.368 88.974 194.547 88.974 192.301C88.974 190.055 87.1533 188.235 84.9074 188.235C82.6615 188.235 80.8408 190.055 80.8408 192.301C80.8408 194.547 82.6615 196.368 84.9074 196.368Z" fill="#263238"/>
<path d="M117.056 196.368C119.302 196.368 121.122 194.547 121.122 192.301C121.122 190.055 119.302 188.235 117.056 188.235C114.81 188.235 112.989 190.055 112.989 192.301C112.989 194.547 114.81 196.368 117.056 196.368Z" fill="#263238"/>
<path d="M106.823 197.018L106.599 196.592C106.58 196.554 104.478 192.67 100.251 192.67C96.4054 192.67 95.444 196.326 95.4184 196.483L95.303 196.948L94.3705 196.724L94.4826 196.256C94.4826 196.211 95.6299 191.708 100.251 191.708C105.058 191.708 107.355 195.964 107.451 196.147L107.676 196.57L106.823 197.018Z" fill="#263238"/>
<defs>
<clipPath id="clip0_6399_23381">
<rect width="332" height="226" fill="white"/>
</clipPath>
</defs>
</svg>
