<svg width="12" height="13" viewBox="0 0 12 13" fill="none" xmlns="http://www.w3.org/2000/svg">
<path d="M4.75 2.5H7.25C7.25 2.16848 7.1183 1.85054 6.88388 1.61612C6.64946 1.3817 6.33152 1.25 6 1.25C5.66848 1.25 5.35054 1.3817 5.11612 1.61612C4.8817 1.85054 4.75 2.16848 4.75 2.5ZM4 2.5C4 1.96957 4.21071 1.46086 4.58579 1.08579C4.96086 0.710714 5.46957 0.5 6 0.5C6.53043 0.5 7.03914 0.710714 7.41421 1.08579C7.78929 1.46086 8 1.96957 8 2.5H11.125C11.2245 2.5 11.3198 2.53951 11.3902 2.60983C11.4605 2.68016 11.5 2.77554 11.5 2.875C11.5 2.97446 11.4605 3.06984 11.3902 3.14017C11.3198 3.21049 11.2245 3.25 11.125 3.25H10.47L9.8615 10.5515C9.81723 11.0827 9.57497 11.5778 9.18275 11.9387C8.79053 12.2996 8.277 12.5 7.744 12.5H4.256C3.723 12.5 3.20947 12.2996 2.81725 11.9387C2.42503 11.5778 2.18277 11.0827 2.1385 10.5515L1.53 3.25H0.875C0.775544 3.25 0.680161 3.21049 0.609835 3.14017C0.539509 3.06984 0.5 2.97446 0.5 2.875C0.5 2.77554 0.539509 2.68016 0.609835 2.60983C0.680161 2.53951 0.775544 2.5 0.875 2.5H4ZM2.886 10.489C2.91459 10.8327 3.07131 11.1531 3.32507 11.3867C3.57883 11.6203 3.91111 11.7499 4.256 11.75H7.744C8.08889 11.7499 8.42116 11.6203 8.67493 11.3867C8.92869 11.1531 9.08541 10.8327 9.114 10.489L9.718 3.25H2.2825L2.886 10.489ZM4.875 5C4.97446 5 5.06984 5.03951 5.14016 5.10984C5.21049 5.18016 5.25 5.27554 5.25 5.375V9.625C5.25 9.72446 5.21049 9.81984 5.14016 9.89017C5.06984 9.96049 4.97446 10 4.875 10C4.77554 10 4.68016 9.96049 4.60984 9.89017C4.53951 9.81984 4.5 9.72446 4.5 9.625V5.375C4.5 5.27554 4.53951 5.18016 4.60984 5.10984C4.68016 5.03951 4.77554 5 4.875 5ZM7.5 5.375C7.5 5.27554 7.46049 5.18016 7.39017 5.10984C7.31984 5.03951 7.22446 5 7.125 5C7.02554 5 6.93016 5.03951 6.85984 5.10984C6.78951 5.18016 6.75 5.27554 6.75 5.375V9.625C6.75 9.72446 6.78951 9.81984 6.85984 9.89017C6.93016 9.96049 7.02554 10 7.125 10C7.22446 10 7.31984 9.96049 7.39017 9.89017C7.46049 9.81984 7.5 9.72446 7.5 9.625V5.375Z" fill="white"/>
</svg>
