<svg width="12" height="12" viewBox="0 0 12 12" fill="none" xmlns="http://www.w3.org/2000/svg">
<path fill-rule="evenodd" clip-rule="evenodd" d="M11.5156 2.15944C11.571 2.24356 11.5957 2.34423 11.5855 2.44445C11.5753 2.54467 11.5308 2.63829 11.4596 2.70952L6.09702 8.07152C6.04216 8.12635 5.97371 8.16561 5.89868 8.18527L3.6651 8.76861C3.59127 8.78786 3.51368 8.78747 3.44005 8.76748C3.36641 8.74748 3.29928 8.70858 3.24533 8.65463C3.19137 8.60067 3.15247 8.53354 3.13248 8.45991C3.11248 8.38627 3.11209 8.30869 3.13135 8.23485L3.71468 6.00185C3.73171 5.93482 3.76383 5.87257 3.8086 5.81985L9.19102 0.440937C9.27305 0.359007 9.38424 0.312988 9.50018 0.312988C9.61612 0.312988 9.72732 0.359007 9.80935 0.440937L11.4596 2.0906C11.4805 2.11161 11.4993 2.13467 11.5156 2.15944ZM10.5315 2.39977L9.50018 1.36902L4.53135 6.33785L4.16677 7.73377L5.56268 7.36919L10.5315 2.39977Z" fill="#666666"/>
<path d="M10.4572 9.01001C10.6167 7.64732 10.6676 6.27411 10.6095 4.90335C10.6082 4.87105 10.6136 4.83885 10.6254 4.80874C10.6371 4.77863 10.6549 4.75126 10.6777 4.72835L11.2517 4.15435C11.2674 4.13857 11.2873 4.12767 11.3091 4.12293C11.3308 4.1182 11.3534 4.11984 11.3743 4.12767C11.3951 4.13549 11.4132 4.14916 11.4265 4.16704C11.4397 4.18491 11.4475 4.20623 11.4489 4.22843C11.5569 5.85665 11.5159 7.49134 11.3264 9.1121C11.1887 10.2916 10.2414 11.2162 9.06716 11.3474C7.02861 11.5732 4.97137 11.5732 2.93283 11.3474C1.75916 11.2162 0.811242 10.2916 0.673575 9.1121C0.431725 7.04442 0.431725 4.95561 0.673575 2.88793C0.811242 1.70843 1.75858 0.783848 2.93283 0.652598C4.48004 0.48103 6.03892 0.439468 7.59308 0.528348C7.61532 0.529945 7.63664 0.537883 7.65451 0.551222C7.67238 0.564561 7.68605 0.582741 7.69391 0.603611C7.70176 0.62448 7.70347 0.647164 7.69884 0.668975C7.6942 0.690787 7.68341 0.710813 7.66774 0.726682L7.08849 1.30535C7.0658 1.32795 7.03873 1.34567 7.00893 1.35741C6.97914 1.36915 6.94725 1.37466 6.91524 1.3736C5.61835 1.32951 4.31997 1.37923 3.03024 1.52235C2.65337 1.56406 2.30157 1.7316 2.03167 1.99791C1.76176 2.26422 1.58951 2.61374 1.54274 2.99002C1.30885 4.98987 1.30885 7.01016 1.54274 9.01001C1.58951 9.38629 1.76176 9.73581 2.03167 10.0021C2.30157 10.2684 2.65337 10.436 3.03024 10.4777C4.98733 10.6964 7.01266 10.6964 8.97032 10.4777C9.34719 10.436 9.69899 10.2684 9.9689 10.0021C10.2388 9.73581 10.4105 9.38629 10.4572 9.01001Z" fill="#666666"/>
</svg>
