<svg width="15" height="15" viewBox="0 0 15 15" fill="none" xmlns="http://www.w3.org/2000/svg">
<path fill-rule="evenodd" clip-rule="evenodd" d="M10.9917 3.66401C8.67105 3.40464 6.32871 3.40464 4.00805 3.66401C3.97247 3.66809 3.93864 3.68164 3.91008 3.70325C3.88153 3.72486 3.8593 3.75374 3.84571 3.78687C3.83212 3.82001 3.82768 3.85618 3.83284 3.89162C3.838 3.92705 3.85257 3.96046 3.87505 3.98834L5.92663 6.52467C6.66149 7.43315 7.0624 8.56627 7.06238 9.73476V11.42L7.93738 12.0617V9.73417C7.9375 8.56589 8.33839 7.433 9.07313 6.52467L11.1247 3.98834C11.1472 3.96046 11.1618 3.92705 11.1669 3.89162C11.1721 3.85618 11.1676 3.82001 11.154 3.78687C11.1405 3.75374 11.1182 3.72486 11.0897 3.70325C11.0611 3.68164 11.0273 3.66809 10.9917 3.66401ZM3.91121 2.79426C6.29643 2.52767 8.70392 2.52767 11.0891 2.79426C11.9326 2.88876 12.3392 3.87809 11.8055 4.53842L9.75388 7.07476C9.14479 7.8275 8.81244 8.76645 8.81238 9.73476V12.925C8.81244 13.0059 8.79006 13.0852 8.74774 13.1542C8.70541 13.2232 8.64479 13.279 8.57262 13.3156C8.50045 13.3522 8.41956 13.368 8.33893 13.3613C8.25829 13.3547 8.18108 13.3258 8.11588 13.2779L6.36588 11.9946C6.3105 11.9539 6.26549 11.9008 6.23447 11.8395C6.20346 11.7781 6.18733 11.7104 6.18738 11.6417V9.73417C6.18738 8.76584 5.85488 7.82726 5.24646 7.07417L3.19488 4.53901C2.66055 3.87867 3.06655 2.88876 3.91121 2.79426Z" fill="#292929"/>
</svg>
